<svg width="100" height="32" viewBox="0 0 100 32" fill="none" xmlns="http://www.w3.org/2000/svg">
<path d="M16.0095 8.34495e-05C7.23721 8.34495e-05 8.34983e-05 7.23293 8.34983e-05 16C-0.00672352 18.103 0.402729 20.1867 1.20487 22.1309C2.007 24.0752 3.18599 25.8417 4.67396 27.3288C6.16192 28.8159 7.92949 29.9942 9.87491 30.7958C11.8203 31.5975 13.9052 32.0067 16.0095 31.9999C25.0011 31.9999 32.0189 24.9863 32.0189 16C32.0257 13.897 31.6163 11.8133 30.8141 9.86905C30.012 7.92478 28.833 6.15827 27.345 4.67118C25.8571 3.1841 24.0895 2.00581 22.1441 1.20415C20.1987 0.402487 18.1138 -0.00671953 16.0095 8.34495e-05ZM16.0095 27.3972C9.8689 27.3972 4.82484 22.3561 4.82484 16C4.82484 9.86305 9.8689 4.82198 16.0095 4.82198C22.3694 4.82198 27.4135 9.86305 27.4135 16C27.4135 22.3561 22.3694 27.3972 16.0095 27.3972Z" fill="black"/>
<path d="M84.8724 19.0553C84.8724 11.8224 80.9249 7.21973 73.6877 7.21973C66.6699 7.21973 62.0645 12.2608 62.0645 19.4936C62.0645 26.7265 66.2313 31.9867 73.6877 31.9867C79.8283 31.9867 83.3372 28.6991 84.6531 24.0964H80.0476C79.609 25.6306 78.0739 28.2607 73.907 28.2607C69.0823 28.2607 66.8892 24.7539 66.8892 20.8087H84.8724V19.0553ZM66.8892 17.3019C67.1085 13.3567 69.7402 10.9457 73.6877 10.9457C77.6352 10.9457 80.0476 13.5759 80.0476 17.3019H66.8892Z" fill="black"/>
<path d="M92.7666 12.5812H99.5651V7.97852H94.3017C90.5735 7.97852 88.1611 7.97851 88.1611 13.6771V31.4304H92.7666V12.5812Z" fill="black"/>
<path d="M33.7373 7.97204V11.698H38.1234V25.7254C38.1234 31.424 40.5358 31.424 44.264 31.424H47.3343V27.2596H42.7289V11.698H51.0626V25.7254C51.0626 31.424 53.4749 31.424 57.4225 31.424H60.2734V27.2596H55.668V11.698H60.2734V7.97204H55.668V2.27344H51.0626V7.97204H42.7289V2.27344H38.1234V7.97204H33.7373Z" fill="black"/>
</svg>
